<svg width="100%" height="100%" viewBox="0 0 52 18" version="1.1" xmlns="http://www.w3.org/2000/svg" xmlns:xlink="http://www.w3.org/1999/xlink" xml:space="preserve">
    <g transform="matrix(4.83183,0,0,4.98741,-31.8776,-29.7329)">
        <path d="M14.853,6.476C14.853,6.429 14.829,6.377 14.794,6.342L14.501,6.049C14.466,6.013 14.413,5.99 14.366,5.99C14.319,5.99 14.267,6.013 14.231,6.049L11.929,8.351L9.626,6.049C9.591,6.013 9.538,5.99 9.491,5.99C9.438,5.99 9.392,6.013 9.356,6.049L9.063,6.342C9.028,6.377 9.005,6.429 9.005,6.476C9.005,6.523 9.028,6.576 9.063,6.611L11.794,9.342C11.829,9.377 11.882,9.4 11.929,9.4C11.976,9.4 12.028,9.377 12.063,9.342L14.794,6.611C14.829,6.576 14.853,6.523 14.853,6.476Z" style="fill:rgb(52,152,219);fill-rule:nonzero;"/>
    </g>
</svg>
